HIERARCHY
ROOT Hips
{
	OFFSET 49.811501 6.178596 83.879303
	CHANNELS 6 Xposition Yposition Zposition Xrotation Yrotation Zrotation
	JOINT spine
	{
		OFFSET 0.000000 -0.342408 5.954376
		CHANNELS 3 Xrotation Yrotation Zrotation
		JOINT spine1
		{
			OFFSET 0.000000 -0.000001 8.856018
			CHANNELS 3 Xrotation Yrotation Zrotation
			JOINT spine2
			{
				OFFSET 0.000000 -0.000001 8.485672
				CHANNELS 3 Xrotation Yrotation Zrotation
				JOINT Neck
				{
					OFFSET 0.000000 -1.038703 21.786301
					CHANNELS 3 Xrotation Yrotation Zrotation
					JOINT Head
					{
						OFFSET 0.000000 -0.000001 6.582199
						CHANNELS 3 Xrotation Yrotation Zrotation
						End Site
						{
							OFFSET 0.000000 5.254357 15.932602
						}
					}
				}
				JOINT RightShoulder
				{
					OFFSET -3.573071 0.497524 9.163864
					CHANNELS 3 Xrotation Yrotation Zrotation
					JOINT RightArm
					{
						OFFSET 0.000000 -0.000002 12.019196
						CHANNELS 3 Xrotation Yrotation Zrotation
						JOINT RightArmRoll
						{
							OFFSET 0.000000 -0.000001 6.067551
							CHANNELS 3 Xrotation Yrotation Zrotation
							JOINT RightForeArm
							{
								OFFSET 0.000000 -0.000003 17.672592
								CHANNELS 3 Xrotation Yrotation Zrotation
								JOINT RightForeArmRoll
								{
									OFFSET 0.000000 -0.000001 6.808716
									CHANNELS 3 Xrotation Yrotation Zrotation
									JOINT RightHand
									{
										OFFSET 0.000000 -0.000002 13.663605
										CHANNELS 3 Xrotation Yrotation Zrotation
										End Site
										{
											OFFSET 0.000000 0.000000 0.100006
										}
									}
								}
							}
						}
					}
				}
				JOINT LeftShoulder
				{
					OFFSET 3.573071 0.497524 9.163864
					CHANNELS 3 Xrotation Yrotation Zrotation
					JOINT LeftArm
					{
						OFFSET 0.000000 -0.000002 12.019196
						CHANNELS 3 Xrotation Yrotation Zrotation
						JOINT LeftArmRoll
						{
							OFFSET 0.000000 -0.000001 6.067551
							CHANNELS 3 Xrotation Yrotation Zrotation
							JOINT LeftForeArm
							{
								OFFSET 0.000000 -0.000003 17.672592
								CHANNELS 3 Xrotation Yrotation Zrotation
								JOINT LeftForeArmRoll
								{
									OFFSET 0.000000 -0.000001 6.808716
									CHANNELS 3 Xrotation Yrotation Zrotation
									JOINT LeftHand
									{
										OFFSET 0.000000 -0.000002 13.663605
										CHANNELS 3 Xrotation Yrotation Zrotation
										End Site
										{
											OFFSET 0.000000 0.000000 0.100006
										}
									}
								}
							}
						}
					}
				}
			}
		}
	}
	JOINT RightUpLeg
	{
		OFFSET -5.277740 0.811859 -0.967796
		CHANNELS 3 Xrotation Yrotation Zrotation
		JOINT RightUpLegRoll
		{
			OFFSET 0.000000 -0.000003 16.021400
			CHANNELS 3 Xrotation Yrotation Zrotation
			JOINT RightLeg
			{
				OFFSET 0.000000 0.000003 -19.840103
				CHANNELS 3 Xrotation Yrotation Zrotation
				JOINT RightLegRoll
				{
					OFFSET 0.000000 -0.000003 19.904999
					CHANNELS 3 Xrotation Yrotation Zrotation
					JOINT RightFoot
					{
						OFFSET 0.000000 -0.000002 16.567497
						CHANNELS 3 Xrotation Yrotation Zrotation
						JOINT RightToeBase
						{
							OFFSET 0.000000 -0.000002 13.849602
							CHANNELS 3 Xrotation Yrotation Zrotation
							End Site
							{
								OFFSET 0.005871 0.773116 6.707275
							}
						}
					}
				}
			}
		}
	}
	JOINT LeftUpLeg
	{
		OFFSET 5.277740 0.811859 -0.967796
		CHANNELS 3 Xrotation Yrotation Zrotation
		JOINT LeftUpLegRoll
		{
			OFFSET 0.000000 -0.000003 16.021500
			CHANNELS 3 Xrotation Yrotation Zrotation
			JOINT LeftLeg
			{
				OFFSET 0.000000 -0.000003 19.840004
				CHANNELS 3 Xrotation Yrotation Zrotation
				JOINT LeftLegRoll
				{
					OFFSET 0.000000 -0.000003 20.089005
					CHANNELS 3 Xrotation Yrotation Zrotation
					JOINT LeftFoot
					{
						OFFSET 0.000000 -0.000003 16.383499
						CHANNELS 3 Xrotation Yrotation Zrotation
						JOINT LeftToeBase
						{
							OFFSET 0.000000 -0.000002 13.849594
							CHANNELS 3 Xrotation Yrotation Zrotation
							End Site
							{
								OFFSET -0.026310 0.773116 6.707275
							}
						}
					}
				}
			}
		}
	}
}
MOTION
Frames: 12
Frame Time: 0.041667
54.115601 1.765512 84.099403 -8.848029 -1.864362 -1.687356 0.865300 -0.267320 0.097162 5.723242 -0.526652 0.190410 7.368371 -0.524350 0.195022 36.632862 8.995806 -4.997068 14.580516 -4.429814 -3.320801 -8.352242 -68.551077 -10.439545 -42.368183 -119.089375 -51.986844 -0.000001 -0.000000 -0.000001 -0.015670 3.637890 -1.990846 0.000001 -0.000006 -3.011591 -5.000174 -7.999919 -0.000002 -2.612673 68.374094 3.986406 -36.433851 121.752056 48.144924 0.000004 -0.000003 0.000006 -0.025278 -3.639631 1.990797 0.000004 -0.000007 3.011601 -5.000143 7.999929 -0.000014 -1.813824 -175.206387 5.367204 -179.999991 0.000005 -1.070996 165.794345 -3.224509 -0.843779 -0.000001 0.000001 0.235769 71.422018 6.844005 2.091396 25.456947 -7.352271 0.000006 0.738835 -177.392225 2.473068 -0.000006 -0.000004 -1.137090 -10.898351 0.960945 0.411603 0.000003 -0.000000 -0.198164 70.699623 -6.856599 -2.117841 25.456878 7.354484 0.000012 
54.118103 1.764672 84.098701 -8.829331 -1.862866 -1.677450 0.865321 -0.267975 0.097162 5.724563 -0.527783 0.190405 7.369691 -0.525480 0.195247 36.567228 8.995033 -4.989531 14.626095 -4.446218 -3.313237 -8.405260 -68.545702 -10.498759 -42.380648 -119.095399 -52.001106 -0.000001 0.000000 -0.000001 -0.015668 3.637890 -1.990846 0.000000 -0.000006 -3.011590 -5.000174 -7.999920 -0.000002 -2.627421 68.359142 4.001478 -36.432045 121.772765 48.159145 0.000004 -0.000003 0.000006 -0.025279 -3.639630 1.990796 0.000004 -0.000007 3.011600 -5.000144 7.999932 -0.000014 -1.833858 -175.207439 5.363531 -179.999991 0.000005 -1.070997 165.787023 -3.225371 -0.843438 -0.000001 0.000001 0.235770 71.426184 6.844010 2.091442 25.456947 -7.352271 0.000006 0.714447 -177.395203 2.470231 -0.000005 -0.000004 -1.137120 -10.906463 0.964959 0.412669 0.000002 -0.000001 -0.198172 70.688988 -6.856617 -2.117799 25.456883 7.354484 0.000012 
54.119202 1.768454 84.095299 -8.810655 -1.861428 -1.667046 0.865343 -0.268633 0.097162 5.725976 -0.528894 0.190399 7.371093 -0.526589 0.195471 36.499462 8.993420 -4.981445 14.675969 -4.461712 -3.305395 -8.461921 -68.540525 -10.562067 -42.394052 -119.101820 -52.016395 -0.000001 0.000000 0.000000 -0.015669 3.637890 -1.990846 0.000000 -0.000006 -3.011591 -5.000173 -7.999920 -0.000002 -2.642586 68.343699 4.016965 -36.430713 121.793638 48.174468 0.000005 -0.000003 0.000004 -0.025280 -3.639631 1.990792 0.000003 -0.000007 3.011600 -5.000144 7.999931 -0.000014 -1.853958 -175.208504 5.360045 -179.999991 0.000005 -1.070997 165.779374 -3.227209 -0.843363 -0.000000 0.000001 0.235769 71.430658 6.843975 2.091462 25.456948 -7.352269 0.000007 0.689873 -177.397184 2.467330 -0.000005 -0.000004 -1.137160 -10.914880 0.969089 0.413765 0.000002 -0.000001 -0.198183 70.678026 -6.856598 -2.117772 25.456885 7.354485 0.000012 
54.129204 1.766015 84.098801 -8.791995 -1.860020 -1.656297 0.865377 -0.269290 0.097162 5.727426 -0.529990 0.190392 7.372557 -0.527685 0.195694 36.430402 8.991114 -4.972953 14.728751 -4.476553 -3.297361 -8.521135 -68.535505 -10.628257 -42.408115 -119.108486 -52.032453 -0.000000 0.000000 -0.000000 -0.015670 3.637890 -1.990845 0.000001 -0.000006 -3.011590 -5.000172 -7.999919 -0.000002 -2.658038 68.327949 4.032751 -36.428937 121.815468 48.189498 0.000004 -0.000003 0.000005 -0.025278 -3.639631 1.990794 0.000004 -0.000006 3.011600 -5.000144 7.999931 -0.000012 -1.874095 -175.209556 5.356705 -179.999991 0.000005 -1.070995 165.771560 -3.228066 -0.844049 -0.000001 0.000001 0.235768 71.435159 6.844003 2.091389 25.456948 -7.352273 0.000007 0.665173 -177.400175 2.464363 -0.000006 -0.000004 -1.137220 -10.923295 0.973302 0.414878 0.000002 -0.000001 -0.198197 70.666954 -6.856574 -2.117750 25.456878 7.354484 0.000012 
54.125801 1.760513 84.100800 -8.773358 -1.858621 -1.645343 0.865413 -0.269949 0.097162 5.728926 -0.531078 0.190383 7.374046 -0.528772 0.195917 36.360495 8.988544 -4.964319 14.783120 -4.491012 -3.289221 -8.581795 -68.530566 -10.696083 -42.422476 -119.115275 -52.048763 -0.000001 -0.000000 -0.000000 -0.015670 3.637890 -1.990846 -0.000000 -0.000006 -3.011590 -5.000174 -7.999919 -0.000003 -2.673643 68.311980 4.048692 -36.427315 121.837352 48.204958 0.000004 -0.000003 0.000005 -0.025279 -3.639631 1.990794 0.000003 -0.000007 3.011601 -5.000145 7.999931 -0.000010 -1.894261 -175.210594 5.353434 -179.999991 0.000005 -1.070996 165.763623 -3.228919 -0.843729 -0.000000 0.000001 0.235769 71.439756 6.843997 2.091307 25.456947 -7.352269 0.000007 0.640403 -177.402170 2.461387 -0.000006 -0.000004 -1.137280 -10.931909 0.977562 0.416005 0.000002 -0.000000 -0.198212 70.655671 -6.856578 -2.117645 25.456882 7.354484 0.000012 
54.130302 1.758157 84.100296 -8.754724 -1.857232 -1.634340 0.865446 -0.270608 0.097162 5.730427 -0.532164 0.190374 7.375546 -0.529856 0.196139 36.290383 8.985887 -4.955651 14.838092 -4.505370 -3.281007 -8.642845 -68.525615 -10.764354 -42.437178 -119.122187 -52.065487 0.000000 -0.000000 0.000000 -0.015670 3.637890 -1.990846 0.000001 -0.000006 -3.011589 -5.000174 -7.999919 -0.000001 -2.689284 68.296011 4.064664 -36.425703 121.859222 48.220524 0.000004 -0.000003 0.000005 -0.025279 -3.639631 1.990794 0.000004 -0.000007 3.011602 -5.000143 7.999930 -0.000014 -1.914429 -175.211660 5.350193 -179.999991 0.000005 -1.070995 165.755577 -3.230751 -0.843677 -0.000001 0.000001 0.235768 71.444352 6.843992 2.091324 25.456947 -7.352267 0.000006 0.615611 -177.405134 2.458392 -0.000006 -0.000004 -1.137340 -10.940426 0.981838 0.417134 0.000003 -0.000001 -0.198227 70.644394 -6.856576 -2.117540 25.456883 7.354485 0.000012 
54.131203 1.759007 84.100197 -8.736076 -1.855812 -1.623423 0.865484 -0.271267 0.097162 5.731908 -0.533254 0.190366 7.377041 -0.530944 0.196363 36.220684 8.983313 -4.947059 14.892176 -4.519880 -3.272835 -8.703146 -68.520553 -10.831784 -42.451531 -119.128977 -52.081883 0.000001 -0.000000 0.000000 -0.015668 3.637891 -1.990845 0.000001 -0.000006 -3.011589 -5.000174 -7.999919 -0.000002 -2.704811 68.280144 4.080529 -36.424087 121.881119 48.235984 0.000003 -0.000003 0.000005 -0.025279 -3.639631 1.990794 0.000004 -0.000007 3.011599 -5.000144 7.999930 -0.000013 -1.934585 -175.212712 5.346915 -179.999991 0.000005 -1.070997 165.747763 -3.231605 -0.843367 -0.000001 0.000001 0.235769 71.448847 6.844017 2.091351 25.456947 -7.352269 0.000007 0.590857 -177.407142 2.455430 -0.000006 -0.000004 -1.137400 -10.948940 0.986081 0.418258 0.000003 -0.000001 -0.198242 70.633138 -6.856604 -2.117440 25.456883 7.354485 0.000012 
54.132309 1.757516 84.098091 -8.717410 -1.854373 -1.612754 0.865509 -0.271925 0.097162 5.733359 -0.534353 0.190358 7.378489 -0.532042 0.196586 36.151863 8.981186 -4.938747 14.944370 -4.534815 -3.264744 -8.761676 -68.515376 -10.897218 -42.465397 -119.135588 -52.097685 -0.000000 -0.000000 0.000000 -0.015670 3.637891 -1.990845 0.000001 -0.000006 -3.011589 -5.000173 -7.999920 -0.000001 -2.720120 68.264496 4.096160 -36.422158 121.902880 48.250871 0.000003 -0.000003 0.000005 -0.025280 -3.639631 1.990792 0.000003 -0.000006 3.011598 -5.000144 7.999931 -0.000010 -1.954716 -175.213777 5.343549 -179.999991 0.000005 -1.070996 165.739922 -3.233426 -0.843302 -0.000001 0.000001 0.235770 71.453334 6.844012 2.091375 25.456948 -7.352269 0.000006 0.566179 -177.410120 2.452485 -0.000005 -0.000004 -1.137450 -10.957456 0.990274 0.419374 0.000003 -0.000001 -0.198255 70.622066 -6.856597 -2.117322 25.456882 7.354484 0.000012 
54.136803 1.760186 84.098190 -8.698729 -1.852874 -1.602476 0.865532 -0.272582 0.097162 5.734740 -0.535468 0.190353 7.379872 -0.533156 0.196810 36.084644 8.979748 -4.930891 14.993259 -4.550444 -3.256810 -8.817356 -68.510021 -10.959447 -42.477418 -119.142678 -52.111406 -0.000000 0.000000 -0.000000 -0.015668 3.637890 -1.990845 0.000002 -0.000006 -3.011589 -5.000172 -7.999919 -0.000002 -2.735052 68.249026 4.111401 -36.420727 121.923699 48.265986 0.000004 -0.000003 0.000005 -0.025279 -3.639631 1.990796 0.000003 -0.000007 3.011599 -5.000144 7.999931 -0.000012 -1.974803 -175.214829 5.340027 -179.999991 0.000005 -1.070996 165.732396 -3.234285 -0.843971 -0.000000 0.000001 0.235769 71.457705 6.844009 2.091306 25.456948 -7.352271 0.000007 0.541649 -177.412115 2.449617 -0.000006 -0.000004 -1.137490 -10.965769 0.994379 0.420471 0.000003 -0.000000 -0.198266 70.611124 -6.856621 -2.117298 25.456883 7.354484 0.000012 
54.137604 1.759638 84.102890 -8.680015 -1.851325 -1.592720 0.865548 -0.273237 0.097162 5.736042 -0.536606 0.190350 7.381171 -0.534292 0.197036 36.019569 8.979106 -4.923514 15.037662 -4.567039 -3.249103 -8.869031 -68.504352 -11.017165 -42.489521 -119.148607 -52.125258 0.000000 0.000000 0.000000 -0.015668 3.637891 -1.990846 0.000001 -0.000006 -3.011591 -5.000175 -7.999920 -0.000001 -2.749498 68.234184 4.126151 -36.418654 121.944285 48.279762 0.000004 -0.000003 0.000005 -0.025281 -3.639630 1.990796 0.000003 -0.000007 3.011602 -5.000143 7.999931 -0.000016 -1.994816 -175.215895 5.336312 -179.999991 0.000005 -1.070997 165.725074 -3.235160 -0.843637 -0.000001 0.000001 0.235769 71.461872 6.844005 2.091350 25.456948 -7.352271 0.000008 0.517313 -177.415106 2.446821 -0.000006 -0.000004 -1.137510 -10.973887 0.998358 0.421540 0.000002 -0.000001 -0.198272 70.600585 -6.856614 -2.117248 25.456878 7.354484 0.000012 
54.141399 1.749535 84.100601 -8.661252 -1.849687 -1.583661 0.865551 -0.273890 0.097162 5.737233 -0.537772 0.190349 7.382363 -0.535457 0.197263 35.957165 8.979619 -4.916850 15.076282 -4.584868 -3.241723 -8.915705 -68.498430 -11.069252 -42.501378 -119.153224 -52.138912 -0.000001 -0.000000 0.000000 -0.015670 3.637890 -1.990846 0.000002 -0.000006 -3.011590 -5.000173 -7.999919 -0.000003 -2.763341 68.219834 4.140274 -36.416728 121.963819 48.293170 0.000004 -0.000003 0.000006 -0.025278 -3.639631 1.990795 0.000003 -0.000007 3.011600 -5.000142 7.999930 -0.000013 -2.014763 -175.217957 5.332369 -179.999991 0.000005 -1.070997 165.718052 -3.235060 -0.843023 -0.000000 0.000001 0.235770 71.465936 6.843971 2.091395 25.456947 -7.352269 0.000007 0.493216 -177.417101 2.444146 -0.000006 -0.000004 -1.137510 -10.981699 1.002180 0.422575 0.000002 -0.000001 -0.198273 70.590490 -6.856605 -2.117269 25.456882 7.354485 0.000012 
54.143307 1.754526 84.096298 -8.642449 -1.847961 -1.575428 0.865542 -0.274541 0.097161 5.738295 -0.538972 0.190352 7.383417 -0.536655 0.197491 35.898095 8.981627 -4.911103 15.108110 -4.604208 -3.234692 -8.956252 -68.492119 -11.114430 -42.510582 -119.158032 -52.149423 -0.000000 -0.000000 0.000000 -0.015671 3.637891 -1.990844 0.000001 -0.000006 -3.011590 -5.000173 -7.999919 -0.000001 -2.776418 68.206214 4.153606 -36.414815 121.982220 48.305714 0.000004 -0.000003 0.000005 -0.025279 -3.639631 1.990796 0.000003 -0.000006 3.011601 -5.000142 7.999931 -0.000016 -2.034596 -175.219009 5.328070 -179.999991 0.000005 -1.070996 165.711536 -3.235933 -0.843636 -0.000001 0.000001 0.235769 71.469672 6.843976 2.091367 25.456948 -7.352267 0.000006 0.469424 -177.420079 2.441581 -0.000005 -0.000004 -1.137500 -10.989312 1.005796 0.423568 0.000003 -0.000001 -0.198268 70.580914 -6.856602 -2.117257 25.456883 7.354484 0.000012 
